<svg width="24" height="24" viewBox="0 0 24 24" fill="none" xmlns="http://www.w3.org/2000/svg">
<path d="M15.68 0H8.32C1.59 0 0 1.59 0 8.32V15.68C0 22.41 1.59 24 8.32 24H15.68C22.41 24 24 22.41 24 15.68V8.32C24 1.61 22.41 0 15.68 0Z" fill="#006AFF"/>
<path d="M11.9996 3.99996C10.9591 3.96218 9.92169 4.13526 8.94982 4.50879C7.97795 4.88233 7.09168 5.44859 6.34433 6.17352C5.59698 6.89845 5.00399 7.76707 4.60103 8.72711C4.19808 9.68716 3.99349 10.7188 3.99957 11.76C3.98661 12.8401 4.20374 13.9105 4.63651 14.9002C5.06928 15.8899 5.70779 16.7761 6.50957 17.5C6.64067 17.6183 6.71973 17.7836 6.72957 17.96V19.38C6.73435 19.4844 6.76426 19.5862 6.81675 19.6766C6.86924 19.767 6.94278 19.8434 7.03111 19.8994C7.11944 19.9553 7.21996 19.9891 7.32415 19.9979C7.42833 20.0067 7.5331 19.9903 7.62957 19.95L9.21957 19.25C9.35516 19.2002 9.50399 19.2002 9.63957 19.25C10.3956 19.4564 11.1759 19.5606 11.9596 19.56C12.9813 19.5626 13.9935 19.3639 14.9384 18.9754C15.8833 18.5868 16.7424 18.016 17.4667 17.2954C18.191 16.5748 18.7663 15.7186 19.1597 14.7757C19.5531 13.8328 19.7569 12.8216 19.7596 11.8C19.7622 10.7783 19.5636 9.76608 19.175 8.82116C18.7865 7.87624 18.2156 7.01711 17.495 6.29281C16.7744 5.56851 15.9182 4.99324 14.9753 4.59983C14.0324 4.20642 13.0213 4.00258 11.9996 3.99996Z" fill="white"/>
<path d="M7.19926 13.9998L9.54926 10.2998C9.63931 10.1619 9.75678 10.044 9.89437 9.95349C10.032 9.86294 10.1867 9.80169 10.349 9.77355C10.5113 9.74541 10.6776 9.75098 10.8377 9.78991C10.9977 9.82884 11.148 9.9003 11.2793 9.99984L13.1493 11.3998C13.2327 11.4631 13.3345 11.4974 13.4393 11.4974C13.544 11.4974 13.6458 11.4631 13.7293 11.3998L16.2493 9.48984C16.3199 9.43907 16.4059 9.41409 16.4928 9.41908C16.5797 9.42408 16.6622 9.45874 16.7266 9.51728C16.791 9.57582 16.8333 9.65469 16.8466 9.7407C16.8598 9.82671 16.8431 9.91466 16.7993 9.98984L14.4493 13.6998C14.3608 13.8393 14.2446 13.959 14.1077 14.0515C13.9709 14.144 13.8165 14.2072 13.6541 14.2372C13.4917 14.2673 13.3248 14.2635 13.164 14.2261C13.0031 14.1887 12.8517 14.1185 12.7193 14.0198L10.8493 12.6198C10.7658 12.5566 10.664 12.5223 10.5593 12.5223C10.4545 12.5223 10.3527 12.5566 10.2693 12.6198L7.74926 14.5398C7.67765 14.6128 7.58 14.6543 7.47779 14.6552C7.37558 14.6562 7.27719 14.6165 7.20426 14.5448C7.13132 14.4732 7.08982 14.3756 7.08888 14.2734C7.08795 14.1712 7.12765 14.0728 7.19926 13.9998Z" fill="#006AFF"/>
</svg>
