<svg width="24" height="24" viewBox="0 0 24 24" fill="none" xmlns="http://www.w3.org/2000/svg">
<path d="M15.68 0H8.32C1.59 0 0 1.59 0 8.32V15.68C0 22.41 1.59 24 8.32 24H15.68C22.41 24 24 22.41 24 15.68V8.32C24 1.61 22.41 0 15.68 0Z" fill="#EE8208"/>
<path d="M11.9999 12.25C12.8147 12.25 13.6113 12.0084 14.2888 11.5557C14.9664 11.103 15.4944 10.4595 15.8063 9.70667C16.1181 8.95384 16.1997 8.12544 16.0407 7.32624C15.8817 6.52704 15.4894 5.79292 14.9132 5.21673C14.337 4.64054 13.6029 4.24815 12.8037 4.08918C12.0045 3.93021 11.1761 4.01179 10.4232 4.32363C9.6704 4.63546 9.02694 5.16353 8.57423 5.84106C8.12152 6.51859 7.87988 7.31515 7.87988 8.13001C7.88252 9.22189 8.31744 10.2683 9.08952 11.0404C9.8616 11.8125 10.908 12.2474 11.9999 12.25ZM11.9999 6.42001C12.3381 6.42001 12.6687 6.5203 12.9499 6.7082C13.2311 6.8961 13.4503 7.16316 13.5797 7.47562C13.7091 7.78808 13.743 8.13191 13.677 8.46362C13.611 8.79532 13.4482 9.10002 13.209 9.33916C12.9699 9.57831 12.6652 9.74117 12.3335 9.80715C12.0018 9.87314 11.658 9.83927 11.3455 9.70985C11.033 9.58042 10.766 9.36124 10.5781 9.08004C10.3902 8.79883 10.2899 8.46822 10.2899 8.13001C10.2886 7.90508 10.3319 7.68212 10.4173 7.47406C10.5028 7.26599 10.6287 7.07695 10.7878 6.9179C10.9468 6.75885 11.1359 6.63294 11.3439 6.54747C11.552 6.46201 11.775 6.41868 11.9999 6.42001Z" fill="white"/>
<path d="M13.6701 15.63C14.5235 15.443 15.3364 15.1042 16.0701 14.63C16.3446 14.4576 16.5393 14.1832 16.6116 13.8672C16.6838 13.5512 16.6275 13.2195 16.4551 12.945C16.2827 12.6705 16.0083 12.4757 15.6923 12.4035C15.3763 12.3313 15.0446 12.3876 14.7701 12.56C13.9375 13.0839 12.9738 13.3618 11.9901 13.3618C11.0064 13.3618 10.0427 13.0839 9.21008 12.56C9.07416 12.4746 8.92276 12.4169 8.76452 12.39C8.60628 12.3632 8.44431 12.3678 8.28784 12.4035C7.97184 12.4757 7.69747 12.6705 7.52508 12.945C7.35268 13.2195 7.2964 13.5512 7.3686 13.8672C7.4408 14.1832 7.63558 14.4576 7.91008 14.63C8.64814 15.0959 9.45953 15.434 10.3101 15.63L8.00008 18C7.77352 18.2269 7.64627 18.5344 7.64627 18.855C7.64627 19.1756 7.77352 19.4831 8.00008 19.71C8.23159 19.9354 8.54195 20.0615 8.86508 20.0615C9.1882 20.0615 9.49856 19.9354 9.73007 19.71L12.0001 17.39L14.2701 19.66C14.4993 19.8416 14.7866 19.934 15.0787 19.9201C15.3709 19.9062 15.6481 19.787 15.8591 19.5846C16.0701 19.3821 16.2007 19.11 16.2266 18.8187C16.2525 18.5274 16.172 18.2365 16.0001 18L13.6701 15.63Z" fill="white"/>
</svg>
