<svg width="24" height="24" viewBox="0 0 24 24" fill="none" xmlns="http://www.w3.org/2000/svg">
<path d="M15.68 0H8.32C1.59 0 0 1.59 0 8.32V15.68C0 22.41 1.59 24 8.32 24H15.68C22.41 24 24 22.41 24 15.68V8.32C24 1.59 22.41 0 15.68 0Z" fill="#1DA1F2"/>
<path d="M19.13 6.0801C18.5091 6.44273 17.8338 6.70274 17.13 6.8501C16.8435 6.53543 16.4946 6.28398 16.1054 6.11179C15.7163 5.93961 15.2955 5.85048 14.87 5.8501C14.462 5.85531 14.0591 5.941 13.6843 6.10226C13.3096 6.26351 12.9703 6.49716 12.686 6.78981C12.4017 7.08246 12.178 7.42834 12.0277 7.80763C11.8774 8.18692 11.8034 8.59216 11.81 9.0001C11.8159 9.2392 11.8461 9.47708 11.9 9.7101C10.6638 9.64039 9.45598 9.31146 8.35512 8.74466C7.25425 8.17786 6.2849 7.38586 5.51 6.4201C5.11628 7.10731 5.00052 7.91915 5.18648 8.68901C5.37244 9.45888 5.84601 10.1284 6.51 10.5601C6.01805 10.5493 5.53668 10.4152 5.11 10.1701C5.12037 10.8777 5.37176 11.5606 5.82266 12.106C6.27355 12.6515 6.89698 13.0268 7.59 13.1701C7.32559 13.239 7.05323 13.2726 6.78 13.2701C6.59056 13.2907 6.39944 13.2907 6.21 13.2701C6.40513 13.8864 6.78925 14.4257 7.30794 14.8116C7.82663 15.1975 8.45359 15.4104 9.1 15.4201C8.45599 15.9266 7.71754 16.2998 6.92775 16.5178C6.13797 16.7359 5.31266 16.7944 4.5 16.6901C5.90555 17.595 7.53842 18.0838 9.21 18.1001C10.3683 18.1054 11.5162 17.8807 12.587 17.439C13.6579 16.9973 14.6303 16.3473 15.448 15.5268C16.2657 14.7064 16.9123 13.7317 17.3504 12.6594C17.7885 11.587 18.0093 10.4384 18 9.2801C18 9.1401 18 9.0101 18 8.8701C18.6048 8.43628 19.1237 7.89372 19.53 7.2701C18.9664 7.51715 18.3704 7.68216 17.76 7.7601C18.4174 7.39907 18.9086 6.79665 19.13 6.0801Z" fill="white"/>
</svg>
