<svg width="24" height="24" viewBox="0 0 24 24" fill="none" xmlns="http://www.w3.org/2000/svg">
<path d="M15.68 0H8.32C1.59 0 0 1.59 0 8.32V15.68C0 22.41 1.59 24 8.32 24H15.68C22.41 24 24 22.41 24 15.68V8.32C24 1.61 22.41 0 15.68 0Z" fill="#25D366"/>
<path d="M17.7603 6.21011C16.6276 5.08035 15.1856 4.31133 13.6164 4.00003C12.0471 3.68874 10.4208 3.84912 8.94261 4.46095C7.46439 5.07277 6.20045 6.10864 5.31021 7.4379C4.41997 8.76716 3.9433 10.3303 3.94031 11.9301C3.94318 13.3325 4.30831 14.7104 5.00031 15.9301L3.82031 20.2101L8.21031 19.0601C9.37966 19.6737 10.6798 19.9961 12.0003 20.0001C14.1468 19.9975 16.2045 19.1429 17.7214 17.6241C19.2383 16.1054 20.0903 14.0466 20.0903 11.9001C20.0964 10.8449 19.8937 9.79887 19.4938 8.82233C19.0939 7.84578 18.5048 6.958 17.7603 6.21011ZM6.76031 15.6801L6.57031 15.3901C5.76574 14.0371 5.47949 12.4381 5.76473 10.89C6.04998 9.34194 6.88732 7.94996 8.12127 6.97257C9.35523 5.99518 10.9019 5.4988 12.4742 5.57559C14.0465 5.65238 15.5375 6.29713 16.6703 7.39011C17.2756 7.99095 17.7553 8.7062 18.0815 9.49422C18.4077 10.2822 18.5738 11.1273 18.5703 11.9801C18.5677 13.7032 17.882 15.355 16.6636 16.5734C15.4452 17.7918 13.7934 18.4775 12.0703 18.4801C10.905 18.4818 9.76099 18.1673 8.76031 17.5701L8.48031 17.4001L6.09031 18.0001L6.76031 15.6801Z" fill="white"/>
<path d="M8.72966 12.3399C9.58911 13.6205 10.768 14.6546 12.1497 15.3399C12.5241 15.5032 12.9081 15.6435 13.2997 15.7599C13.561 15.845 13.8348 15.8856 14.1097 15.8799C14.2761 15.8914 14.4432 15.8914 14.6097 15.8799C14.9062 15.8231 15.1876 15.7048 15.4357 15.5326C15.6837 15.3603 15.8929 15.138 16.0497 14.8799C16.1977 14.5469 16.2329 14.1747 16.1497 13.8199C16.0642 13.7197 15.9538 13.6439 15.8297 13.5999L15.7197 13.5399C15.5797 13.4699 14.5497 12.9599 14.3497 12.8899C14.3007 12.8594 14.2461 12.839 14.1891 12.83C14.1321 12.821 14.0738 12.8236 14.0178 12.8376C13.9618 12.8516 13.9092 12.8767 13.8632 12.9115C13.8171 12.9462 13.7785 12.9899 13.7497 13.0399C13.6297 13.2199 13.2797 13.6399 13.1297 13.8099C12.9797 13.9799 13.0297 13.9099 12.8497 13.8099L12.7097 13.7399C12.1854 13.5232 11.7018 13.2188 11.2797 12.8399C10.8543 12.4463 10.4903 11.9912 10.1997 11.4899C10.1297 11.3699 10.1997 11.3299 10.2597 11.2299C10.3346 11.1579 10.4047 11.081 10.4697 10.9999L10.5697 10.8799C10.6448 10.7879 10.7086 10.6872 10.7597 10.5799V10.5199C10.7973 10.4491 10.817 10.3701 10.817 10.2899C10.817 10.2097 10.7973 10.1307 10.7597 10.0599C10.7597 9.99989 10.5197 9.48989 10.3497 9.05989L10.1497 8.55989C9.98966 8.16989 9.79966 8.13989 9.62966 8.13989H9.20966C9.09197 8.14322 8.97621 8.17067 8.86956 8.22055C8.76291 8.27044 8.66765 8.34169 8.58966 8.42989C8.36668 8.65469 8.1908 8.92173 8.07232 9.21535C7.95384 9.50898 7.89514 9.8233 7.89966 10.1399C7.95963 10.9181 8.25231 11.6602 8.73966 12.2699L8.72966 12.3399Z" fill="white"/>
</svg>
