<svg width="116" height="116" viewBox="0 0 116 116" fill="none" xmlns="http://www.w3.org/2000/svg">
<circle cx="58" cy="58" r="58" fill="#F2EEED"/>
<path d="M57.6994 58.3515C60.3413 58.3515 62.9239 57.5681 65.1205 56.1003C67.3172 54.6326 69.0293 52.5464 70.0403 50.1056C71.0513 47.6648 71.3158 44.979 70.8004 42.3879C70.285 39.7968 69.0128 37.4167 67.1447 35.5486C65.2766 33.6805 62.8965 32.4083 60.3054 31.8929C57.7142 31.3775 55.0285 31.642 52.5877 32.653C50.1469 33.664 48.0607 35.3761 46.593 37.5728C45.1252 39.7694 44.3418 42.352 44.3418 44.9939C44.3418 48.5365 45.7491 51.9341 48.2542 54.4391C50.7592 56.9442 54.1568 58.3515 57.6994 58.3515ZM57.6994 35.4527C59.5865 35.4527 61.4312 36.0123 63.0002 37.0607C64.5692 38.1091 65.7922 39.5992 66.5143 41.3426C67.2365 43.086 67.4254 45.0044 67.0573 46.8553C66.6891 48.7061 65.7804 50.4061 64.446 51.7405C63.1117 53.0748 61.4116 53.9835 59.5608 54.3517C57.71 54.7198 55.7916 54.5309 54.0482 53.8088C52.3048 53.0866 50.8146 51.8637 49.7662 50.2946C48.7178 48.7256 48.1583 46.8809 48.1583 44.9939C48.1583 42.4634 49.1635 40.0366 50.9528 38.2472C52.7421 36.4579 55.169 35.4527 57.6994 35.4527Z" fill="#DED4D1"/>
<path d="M59.6078 62.1682H55.7913C50.2243 62.1682 44.8853 64.3797 40.9488 68.3162C37.0123 72.2527 34.8008 77.5917 34.8008 83.1588C34.8008 83.6649 35.0018 84.1502 35.3597 84.5081C35.7176 84.866 36.2029 85.067 36.709 85.067H78.6901C79.1962 85.067 79.6816 84.866 80.0395 84.5081C80.3973 84.1502 80.5984 83.6649 80.5984 83.1588C80.5984 77.5917 78.3869 72.2527 74.4504 68.3162C70.5139 64.3797 65.1748 62.1682 59.6078 62.1682ZM38.7317 81.2505C39.201 77.0537 41.2001 73.1768 44.3471 70.3607C47.4941 67.5446 51.5683 65.9867 55.7913 65.9847H59.6078C63.8308 65.9867 67.9051 67.5446 71.0521 70.3607C74.1991 73.1768 76.1982 77.0537 76.6674 81.2505H38.7317Z" fill="#DED4D1"/>
</svg>
