<svg width="80" height="80" viewBox="0 0 80 80" fill="none" xmlns="http://www.w3.org/2000/svg">
<g clip-path="url(#clip0)">
<path d="M69.8502 58.7597C70.3281 56.9764 70.4613 55.1546 70.2812 53.3296C69.8093 48.5465 71.1623 43.7907 74.005 39.9153C79.2663 32.7429 80.1247 22.8549 75.3988 14.6551C69.2108 3.9183 55.511 -0.0531287 44.5533 5.73475C39.8633 8.21211 36.3927 12.0443 34.3429 16.4777C31.7394 22.1083 26.6107 26.1418 20.5592 27.5067C11.9618 29.4458 5.51172 34.2243 3.68764 41.0314C0.491317 52.9603 12.7112 66.5992 30.9814 71.4948C49.2517 76.3902 66.6538 70.6886 69.8502 58.7597Z" fill="#E5F2FF"/>
<path opacity="0.1" d="M74.1932 50.8392V46.3439C74.1932 45.9125 73.8434 45.5627 73.412 45.5627H70.2938C70.0404 44.6362 69.6732 43.7575 69.208 42.9411L71.4126 40.7359C71.7176 40.4308 71.7176 39.9362 71.4124 39.6312L68.2338 36.4527C67.9288 36.1477 67.4341 36.1475 67.1291 36.4525L64.9238 38.657C64.1074 38.192 63.2287 37.8248 62.3023 37.5712V34.4531C62.3023 34.0217 61.9524 33.6719 61.521 33.6719H57.0257C56.5943 33.6719 56.2445 34.0217 56.2445 34.4531V37.5712C55.318 37.8247 54.4393 38.1919 53.6229 38.657L51.4176 36.4525C51.1124 36.1475 50.6179 36.1475 50.3129 36.4527L47.1343 39.6312C46.8293 39.9362 46.8291 40.4309 47.1341 40.7359L49.3387 42.9411C48.8737 43.7575 48.5065 44.6364 48.2529 45.5627H45.1348C44.7032 45.5627 44.3535 45.9125 44.3535 46.3439V50.8392C44.3535 51.2706 44.7032 51.6205 45.1348 51.6205H48.2529C48.5063 52.5469 48.8735 53.4256 49.3387 54.242L47.1341 56.4472C46.8291 56.7523 46.8291 57.2469 47.1343 57.552L50.3129 60.7306C50.6179 61.0356 51.1126 61.0358 51.4176 60.7308L53.6229 58.5262C54.4393 58.9912 55.3182 59.3584 56.2445 59.612V62.7302C56.2445 63.1616 56.5943 63.5114 57.0257 63.5114H61.521C61.9524 63.5114 62.3023 63.1616 62.3023 62.7302V59.612C63.2287 59.3586 64.1074 58.9914 64.9238 58.5262L67.1291 60.7308C67.4343 61.0358 67.9288 61.0358 68.2338 60.7306L71.4124 57.552C71.7174 57.247 71.7176 56.7523 71.4126 56.4472L69.208 54.242C69.673 53.4256 70.0402 52.5467 70.2938 51.6205H73.412C73.8434 51.6205 74.1932 51.2706 74.1932 50.8392ZM59.2734 54.4509C56.0373 54.4509 53.414 51.8277 53.414 48.5916C53.414 45.3555 56.0373 42.7322 59.2734 42.7322C62.5095 42.7322 65.1327 45.3555 65.1327 48.5916C65.1327 51.8277 62.5095 54.4509 59.2734 54.4509Z" fill="#409FFF"/>
<path opacity="0.1" d="M45.7532 67.3521V64.227C45.7532 63.7955 45.4035 63.4457 44.972 63.4457H42.7357C42.5396 62.7288 42.2554 62.0488 41.8956 61.417L43.4766 59.8354C43.7816 59.5302 43.7817 59.0357 43.4765 58.7307L41.2665 56.5209C40.9615 56.2159 40.4668 56.2157 40.1618 56.5207L38.5802 58.1018C37.9485 57.742 37.2684 57.4577 36.5515 57.2616V55.0254C36.5515 54.594 36.2016 54.2441 35.7702 54.2441H32.6449C32.2135 54.2441 31.8637 54.594 31.8637 55.0254V57.2616C31.1468 57.4577 30.4668 57.742 29.8349 58.1018L28.2534 56.5207C27.9482 56.2157 27.4537 56.2157 27.1487 56.5209L24.9388 58.7307C24.6338 59.0357 24.6337 59.5304 24.9387 59.8354L26.5198 61.417C26.1599 62.0487 25.8757 62.7288 25.6796 63.4457H23.4434C23.0118 63.4457 22.6621 63.7955 22.6621 64.227V67.3523C22.6621 67.7837 23.0118 68.1335 23.4434 68.1335H25.6796C25.8757 68.8504 26.1599 69.5304 26.5198 70.1623L24.9387 71.7438C24.6337 72.049 24.6337 72.5435 24.9388 72.8485L27.1487 75.0584C27.4537 75.3634 27.9484 75.3635 28.2534 75.0585L29.8349 73.4774C30.4666 73.8373 31.1468 74.1215 31.8637 74.3176V76.5538C31.8637 76.9852 32.2135 77.3351 32.6449 77.3351H35.7702C36.2016 77.3351 36.5515 76.9852 36.5515 76.5538V74.3176C37.2684 74.1215 37.9484 73.8373 38.5802 73.4774L40.1618 75.0585C40.467 75.3635 40.9615 75.3635 41.2665 75.0584L43.4765 72.8485C43.7815 72.5435 43.7816 72.0488 43.4766 71.7438L41.8956 70.1623C42.2554 69.5305 42.5396 68.8504 42.7357 68.1335H44.972C45.4034 68.1334 45.7532 67.7837 45.7532 67.3521ZM34.2076 70.4635C31.6262 70.4635 29.5335 68.3709 29.5335 65.7895C29.5335 63.208 31.6262 61.1154 34.2076 61.1154C36.789 61.1154 38.8816 63.208 38.8816 65.7895C38.8816 68.3709 36.789 70.4635 34.2076 70.4635Z" fill="#409FFF"/>
<path opacity="0.1" d="M45.7045 34.3219V27.7852C45.7045 27.3538 45.3548 27.0039 44.9233 27.0039H40.4911C40.1522 25.7653 39.6612 24.5903 39.0394 23.4987L42.173 20.3641C42.478 20.0589 42.478 19.5644 42.1728 19.2594L37.5506 14.6372C37.2456 14.3322 36.7509 14.332 36.4459 14.637L33.3112 17.7706C32.2197 17.1489 31.0447 16.658 29.8061 16.3189V11.8867C29.8061 11.4553 29.4562 11.1055 29.0248 11.1055H22.4881C22.0567 11.1055 21.7069 11.4553 21.7069 11.8867V16.3189C20.4683 16.6578 19.2933 17.1488 18.2017 17.7706L15.0672 14.637C14.762 14.332 14.2675 14.332 13.9623 14.6372L9.34016 19.2594C9.03516 19.5644 9.035 20.0591 9.34 20.3641L12.4736 23.4987C11.8519 24.5903 11.3609 25.7653 11.022 27.0039H6.58984C6.15844 27.0039 5.80859 27.3538 5.80859 27.7852V34.3219C5.80859 34.7534 6.15844 35.1031 6.58984 35.1031H11.0222C11.3611 36.3417 11.852 37.5167 12.4737 38.6083L9.34016 41.743C9.03516 42.0481 9.03516 42.5427 9.34031 42.8477L13.9625 47.4698C14.2675 47.7748 14.7622 47.775 15.0673 47.47L18.2019 44.3364C19.2934 44.9581 20.4684 45.4491 21.707 45.788V50.2202C21.707 50.6517 22.0569 51.0014 22.4883 51.0014H29.025C29.4564 51.0014 29.8062 50.6517 29.8062 50.2202V45.788C31.0448 45.4491 32.2198 44.9581 33.3114 44.3364L36.4461 47.47C36.7512 47.775 37.2458 47.775 37.5508 47.4698L42.173 42.8477C42.478 42.5427 42.4781 42.048 42.1731 41.743L39.0395 38.6083C39.6612 37.5167 40.1522 36.3417 40.4912 35.1031H44.9234C45.3547 35.1031 45.7045 34.7533 45.7045 34.3219ZM25.7566 39.8922C20.875 39.8922 16.9178 35.935 16.9178 31.0534C16.9178 26.1719 20.875 22.2147 25.7566 22.2147C30.6381 22.2147 34.5953 26.1719 34.5953 31.0534C34.5953 35.935 30.6381 39.8922 25.7566 39.8922Z" fill="#409FFF"/>
<path d="M74.1932 46.6187V42.1234C74.1932 41.692 73.8433 41.3421 73.4119 41.3421H70.2938C70.0404 40.4157 69.6732 39.537 69.208 38.7205L71.4126 36.5152C71.7176 36.2101 71.7176 35.7155 71.4124 35.4105L68.2338 32.232C67.9288 31.927 67.4341 31.9268 67.1291 32.2318L64.9238 34.4363C64.1074 33.9713 63.2287 33.6041 62.3023 33.3505V30.2324C62.3023 29.801 61.9524 29.4512 61.521 29.4512H57.0257C56.5943 29.4512 56.2444 29.801 56.2444 30.2324V33.3505C55.318 33.604 54.4393 33.9712 53.6229 34.4363L51.4176 32.2318C51.1124 31.9268 50.6179 31.9268 50.3129 32.232L47.1343 35.4105C46.8293 35.7155 46.8291 36.2102 47.1341 36.5152L49.3387 38.7205C48.8737 39.537 48.5065 40.4159 48.2529 41.3421H45.1348C44.7032 41.3421 44.3535 41.692 44.3535 42.1234V46.6187C44.3535 47.0501 44.7032 47.3999 45.1348 47.3999H48.2529C48.5063 48.3263 48.8735 49.2051 49.3387 50.0215L47.1341 52.2266C46.8291 52.5318 46.8291 53.0263 47.1343 53.3315L50.3129 56.5101C50.6179 56.8151 51.1126 56.8152 51.4176 56.5102L53.6229 54.3057C54.4393 54.7707 55.3182 55.1379 56.2444 55.3915V58.5096C56.2444 58.941 56.5943 59.2909 57.0257 59.2909H61.521C61.9524 59.2909 62.3023 58.941 62.3023 58.5096V55.3915C63.2287 55.1381 64.1074 54.7709 64.9238 54.3057L67.1291 56.5102C67.4343 56.8152 67.9288 56.8152 68.2338 56.5101L71.4124 53.3315C71.7174 53.0265 71.7176 52.5318 71.4126 52.2266L69.208 50.0215C69.673 49.2051 70.0402 48.3262 70.2938 47.3999H73.4119C73.8433 47.3999 74.1932 47.0501 74.1932 46.6187ZM59.2734 50.2304C56.0373 50.2304 53.414 47.6071 53.414 44.371C53.414 41.1349 56.0373 38.5116 59.2734 38.5116C62.5094 38.5116 65.1327 41.1349 65.1327 44.371C65.1327 47.6071 62.5094 50.2304 59.2734 50.2304Z" fill="url(#paint0_linear)"/>
<path d="M61.521 60.0739H57.0257C56.1641 60.0739 55.4632 59.373 55.4632 58.5114V55.9741C54.8807 55.783 54.3126 55.5477 53.7646 55.2705L51.9699 57.0645C51.6748 57.3595 51.2826 57.522 50.8652 57.522H50.8651C50.4477 57.522 50.0552 57.3594 49.7602 57.0641L46.5818 53.8856C46.2868 53.5906 46.1241 53.1984 46.1241 52.7809C46.1241 52.3636 46.2866 51.9712 46.5816 51.6763L48.3757 49.8816C48.0985 49.3336 47.8632 48.7655 47.6721 48.1831H45.1348C44.2732 48.1831 43.5723 47.4822 43.5723 46.6206V42.1253C43.5723 41.2637 44.2732 40.5628 45.1348 40.5628H47.6721C47.863 39.9803 48.0985 39.4122 48.3757 38.8642L46.5816 37.0695C45.9727 36.4606 45.9727 35.4694 46.5816 34.86L49.7604 31.6814C50.3696 31.072 51.3609 31.0723 51.9699 31.6811L53.7646 33.4753C54.3126 33.198 54.8807 32.9627 55.4632 32.7716V30.2344C55.4632 29.3728 56.1641 28.6719 57.0257 28.6719H61.521C62.3826 28.6719 63.0835 29.3728 63.0835 30.2344V32.7716C63.666 32.9627 64.234 33.198 64.7821 33.4753L66.5768 31.6811C67.1862 31.0722 68.1774 31.0723 68.7863 31.6814L71.9649 34.86C72.574 35.4692 72.574 36.4605 71.9649 37.0695L70.1709 38.8642C70.4481 39.4122 70.6835 39.9803 70.8745 40.5628H73.4118C74.2734 40.5628 74.9743 41.2637 74.9743 42.1253V46.6206C74.9743 47.4822 74.2734 48.1831 73.4118 48.1831H70.8745C70.6834 48.7658 70.4481 49.3336 70.1709 49.8816L71.9649 51.6763C72.2599 51.9714 72.4224 52.3636 72.4224 52.7809C72.4224 53.1984 72.2599 53.5908 71.9648 53.8858L68.7862 57.0642C68.4912 57.3594 68.0988 57.522 67.6815 57.522C67.2641 57.522 66.8718 57.3597 66.5766 57.0645L64.782 55.2705C64.2341 55.5477 63.666 55.783 63.0834 55.9741V58.5114C63.0835 59.373 62.3826 60.0739 61.521 60.0739ZM53.6231 53.5264C53.7554 53.5264 53.8885 53.56 54.0096 53.6287C54.7785 54.0669 55.5998 54.4069 56.4505 54.6398C56.7901 54.7327 57.0257 55.0413 57.0257 55.3933V58.5114H61.521V55.3933C61.521 55.0413 61.7565 54.7325 62.0962 54.6397C62.9471 54.407 63.7684 54.0669 64.5371 53.6287C64.8431 53.455 65.2274 53.5062 65.4762 53.7552L67.6815 55.9595L70.8601 52.7809L68.6556 50.5756C68.4068 50.3267 68.3551 49.9422 68.5293 49.6364C68.9673 48.8677 69.3074 48.0464 69.5404 47.1955C69.6334 46.8559 69.942 46.6205 70.294 46.6205H73.4121V42.1252H70.294C69.942 42.1252 69.6334 41.8897 69.5404 41.55C69.3076 40.6994 68.9674 39.878 68.5293 39.1087C68.3552 38.803 68.4068 38.4186 68.6557 38.1697L70.8602 35.9645L67.6816 32.7859L65.4765 34.9905C65.2276 35.2392 64.8429 35.2906 64.5374 35.1169C63.7684 34.6786 62.947 34.3386 62.0965 34.1058C61.757 34.0128 61.5213 33.7042 61.5213 33.3522V30.2342H57.026V33.3522C57.026 33.7042 56.7906 34.013 56.4509 34.1056C55.6004 34.3384 54.779 34.6786 54.0099 35.1169C53.7041 35.2909 53.3196 35.2392 53.0709 34.9905L50.8657 32.7859L47.6871 35.9645L49.8915 38.1697C50.1402 38.4186 50.192 38.803 50.0179 39.1087C49.5798 39.878 49.2396 40.6994 49.0068 41.55C48.9138 41.8897 48.6054 42.1252 48.2532 42.1252H45.1351V46.6205H48.2532C48.6052 46.6205 48.9138 46.8559 49.0068 47.1955C49.2396 48.0462 49.5799 48.8677 50.0179 49.6366C50.192 49.9422 50.1404 50.3267 49.8915 50.5756L47.6871 52.7809L50.8657 55.9595L53.0709 53.7552C53.221 53.6048 53.4209 53.5264 53.6231 53.5264ZM59.2734 51.0136C55.6116 51.0136 52.6327 48.0347 52.6327 44.373C52.6327 40.7113 55.6116 37.7323 59.2734 37.7323C62.9351 37.7323 65.914 40.7113 65.914 44.373C65.914 45.045 65.8137 45.7084 65.616 46.345C65.4881 46.757 65.0502 46.9878 64.6382 46.8594C64.2262 46.7314 63.9959 46.2936 64.1238 45.8814C64.2748 45.3953 64.3515 44.8877 64.3515 44.373C64.3515 41.5728 62.0735 39.2948 59.2734 39.2948C56.4734 39.2948 54.1952 41.5728 54.1952 44.373C54.1952 47.1731 56.4734 49.4511 59.2734 49.4511C59.831 49.4511 60.382 49.3597 60.9109 49.1797C61.319 49.0402 61.7632 49.2587 61.9023 49.6672C62.0415 50.0756 61.8231 50.5195 61.4146 50.6588C60.7232 50.8941 60.0027 51.0136 59.2734 51.0136Z" fill="#3078BF"/>
<path d="M45.7552 63.1334V60.0082C45.7552 59.5768 45.4055 59.227 44.9739 59.227H42.7377C42.5416 58.5101 42.2573 57.8301 41.8975 57.1982L43.4786 55.6166C43.7836 55.3115 43.7836 54.817 43.4784 54.512L41.2684 52.3021C40.9634 51.9971 40.4687 51.997 40.1637 52.302L38.5822 53.883C37.9505 53.5232 37.2703 53.239 36.5534 53.0429V50.8066C36.5534 50.3752 36.2036 50.0254 35.7722 50.0254H32.6469C32.2155 50.0254 31.8656 50.3752 31.8656 50.8066V53.0429C31.1487 53.239 30.4687 53.5232 29.8369 53.883L28.2553 52.302C27.9502 51.997 27.4556 51.997 27.1506 52.3021L24.9408 54.512C24.6358 54.817 24.6356 55.3116 24.9406 55.6166L26.5217 57.1982C26.1619 57.8299 25.8777 58.5101 25.6816 59.227H23.4453C23.0137 59.227 22.6641 59.5768 22.6641 60.0082V63.1335C22.6641 63.5649 23.0137 63.9148 23.4453 63.9148H25.6816C25.8777 64.6316 26.1619 65.3116 26.5217 65.9435L24.9406 67.5251C24.6356 67.8302 24.6356 68.3248 24.9408 68.6298L27.1506 70.8396C27.4556 71.1446 27.9503 71.1448 28.2553 70.8398L29.8369 69.2587C30.4686 69.6185 31.1487 69.9027 31.8656 70.0988V72.3351C31.8656 72.7665 32.2155 73.1163 32.6469 73.1163H35.7722C36.2036 73.1163 36.5534 72.7665 36.5534 72.3351V70.0988C37.2703 69.9027 37.9503 69.6185 38.5822 69.2587L40.1637 70.8398C40.4689 71.1448 40.9634 71.1448 41.2684 70.8396L43.4784 68.6298C43.7834 68.3248 43.7836 67.8301 43.4786 67.5251L41.8975 65.9435C42.2573 65.3118 42.5416 64.6316 42.7377 63.9148H44.9739C45.4053 63.9146 45.7552 63.5649 45.7552 63.1334ZM34.2095 66.2448C31.6281 66.2448 29.5355 64.1521 29.5355 61.5707C29.5355 58.9893 31.6281 56.8966 34.2095 56.8966C36.7909 56.8966 38.8836 58.9893 38.8836 61.5707C38.8836 64.1521 36.7909 66.2448 34.2095 66.2448Z" fill="white"/>
<path d="M35.7704 73.8959H32.6451C31.7835 73.8959 31.0826 73.195 31.0826 72.3334V70.6737C30.7062 70.5447 30.3377 70.392 29.9799 70.217L28.8059 71.3906C28.1968 71.9997 27.2055 71.9998 26.5963 71.3905L24.3863 69.1805C23.7774 68.5714 23.7773 67.5803 24.386 66.9709L25.5598 65.7967C25.3846 65.4389 25.2321 65.0706 25.103 64.6941H23.4434C22.5818 64.6941 21.8809 63.9931 21.8809 63.1316V60.0066C21.8809 59.145 22.5818 58.4441 23.4434 58.4441H25.103C25.2321 58.0677 25.3846 57.6992 25.5598 57.3412L24.386 56.1672C23.777 55.5578 23.7771 54.5667 24.3863 53.9575L26.5962 51.7477C27.2052 51.1386 28.1965 51.1384 28.8057 51.7475L29.9798 52.9211C30.3379 52.7459 30.706 52.5933 31.0824 52.4644V50.8047C31.0824 49.9431 31.7834 49.2422 32.6449 49.2422H35.7702C36.6318 49.2422 37.3327 49.9431 37.3327 50.8047V52.4644C37.709 52.5933 38.0773 52.7459 38.4354 52.9211L39.6095 51.7475C40.2185 51.1384 41.2098 51.1384 41.819 51.7475L44.029 53.9577C44.6382 54.5666 44.6382 55.5578 44.0291 56.1672L42.8554 57.3412C43.0305 57.6992 43.1832 58.0675 43.3121 58.4441H44.972C45.8335 58.4441 46.5345 59.145 46.5345 60.0066V63.1317C46.5345 63.9933 45.8335 64.6942 44.972 64.6942H43.3121C43.183 65.0706 43.0305 65.4391 42.8554 65.7969L44.029 66.9709C44.6379 67.5803 44.6377 68.5714 44.0288 69.1806L41.819 71.3906C41.2096 71.9997 40.2185 71.9995 39.6093 71.3908L38.4352 70.2172C38.0774 70.3922 37.709 70.5448 37.3326 70.6739V72.3336C37.3329 73.1948 36.632 73.8959 35.7704 73.8959ZM29.8354 68.4758C29.9677 68.4758 30.1009 68.5094 30.2218 68.5781C30.804 68.9097 31.4259 69.1673 32.0701 69.3437C32.4096 69.4367 32.6451 69.7452 32.6451 70.0972V72.3333H35.7704V70.0972C35.7704 69.7452 36.0059 69.4366 36.3454 69.3437C36.9898 69.1673 37.6116 68.9098 38.1937 68.5781C38.4995 68.4044 38.8838 68.4556 39.1326 68.7045L40.7141 70.2855L42.924 68.0756L41.343 66.4939C41.0943 66.245 41.0426 65.8605 41.2168 65.5548C41.5484 64.9727 41.806 64.3509 41.9821 63.7067C42.0751 63.367 42.3835 63.1316 42.7357 63.1316H44.972V60.0066H42.7357C42.3835 60.0066 42.0751 59.7711 41.9821 59.4314C41.8059 58.7873 41.5484 58.1653 41.2166 57.5831C41.0426 57.2773 41.0943 56.893 41.343 56.6441L42.9241 55.0625L40.7141 52.8527L39.1324 54.4337C38.8837 54.6825 38.4993 54.7342 38.1935 54.5602C37.6109 54.2283 36.9891 53.9708 36.3454 53.7948C36.0059 53.7019 35.7702 53.3933 35.7702 53.0412V50.8052H32.6449V53.0412C32.6449 53.3933 32.4095 53.702 32.0698 53.7948C31.426 53.9708 30.8043 54.2283 30.2216 54.5602C29.916 54.7342 29.5315 54.6828 29.2827 54.4337L27.7012 52.8528L25.4912 55.0625L27.0721 56.6441C27.3209 56.893 27.3726 57.2773 27.1985 57.5831C26.8668 58.1655 26.6093 58.7873 26.433 59.4314C26.3401 59.7711 26.0316 60.0066 25.6795 60.0066H23.4432V63.1317H25.6795C26.0315 63.1317 26.3401 63.3672 26.433 63.7069C26.6093 64.3511 26.8668 64.973 27.1984 65.555C27.3726 65.8606 27.3209 66.2452 27.0721 66.4941L25.491 68.0756L27.701 70.2858L29.2826 68.7047C29.4334 68.5542 29.6332 68.4758 29.8354 68.4758ZM34.2077 67.0244C31.1996 67.0244 28.7524 64.5772 28.7524 61.5691C28.7524 58.5611 31.1996 56.1139 34.2077 56.1139C37.2157 56.1139 39.6629 58.5611 39.6629 61.5691C39.663 64.5772 37.2159 67.0244 34.2077 67.0244ZM34.2077 57.6764C32.0613 57.6764 30.3149 59.4227 30.3149 61.5691C30.3149 63.7155 32.0612 65.4619 34.2077 65.4619C36.3541 65.4619 38.1004 63.7155 38.1004 61.5691C38.1004 59.4227 36.3543 57.6764 34.2077 57.6764Z" fill="#409FFF"/>
<path d="M45.7045 30.1031V23.5664C45.7045 23.135 45.3548 22.7852 44.9233 22.7852H40.4911C40.1522 21.5466 39.6612 20.3716 39.0394 19.28L42.173 16.1453C42.478 15.8402 42.478 15.3456 42.1728 15.0406L37.5506 10.4184C37.2456 10.1134 36.7509 10.1133 36.4459 10.4183L33.3112 13.5519C32.2197 12.9302 31.0447 12.4392 29.8061 12.1002V7.66797C29.8061 7.23656 29.4562 6.88672 29.0248 6.88672H22.4881C22.0567 6.88672 21.7069 7.23656 21.7069 7.66797V12.1002C20.4683 12.4391 19.2933 12.93 18.2017 13.5519L15.0672 10.4183C14.762 10.1133 14.2675 10.1133 13.9623 10.4184L9.34031 15.0405C9.03531 15.3455 9.03516 15.8402 9.34016 16.1453L12.4737 19.28C11.852 20.3716 11.3611 21.5466 11.0222 22.7852H6.58984C6.15844 22.7852 5.80859 23.135 5.80859 23.5664V30.1031C5.80859 30.5347 6.15844 30.8844 6.58984 30.8844H11.0222C11.3611 32.123 11.852 33.298 12.4737 34.3895L9.34016 37.5241C9.03516 37.8292 9.03516 38.3238 9.34031 38.6289L13.9625 43.2511C14.2675 43.5561 14.7622 43.5563 15.0673 43.2513L18.2019 40.1177C19.2934 40.7394 20.4684 41.2303 21.707 41.5692V46.0014C21.707 46.433 22.0569 46.7827 22.4883 46.7827H29.025C29.4564 46.7827 29.8062 46.433 29.8062 46.0014V41.5692C31.0448 41.2303 32.2198 40.7394 33.3114 40.1177L36.4461 43.2513C36.7512 43.5563 37.2458 43.5563 37.5508 43.2511L42.173 38.6289C42.478 38.3239 42.4781 37.8292 42.1731 37.5241L39.0395 34.3895C39.6612 33.298 40.1522 32.123 40.4912 30.8844H44.9234C45.3547 30.8844 45.7045 30.5345 45.7045 30.1031ZM25.7566 35.6734C20.875 35.6734 16.9178 31.7163 16.9178 26.8347C16.9178 21.9531 20.875 17.9959 25.7566 17.9959C30.6381 17.9959 34.5953 21.9531 34.5953 26.8347C34.5953 31.7163 30.6381 35.6734 25.7566 35.6734Z" fill="white"/>
<path d="M29.025 47.5637H22.4883C21.6267 47.5637 20.9258 46.8628 20.9258 46.0012V42.1534C20.0358 41.8734 19.1703 41.5148 18.3412 41.0828L15.6197 43.8034C15.0105 44.4125 14.0191 44.4125 13.41 43.8031L8.78781 39.1811C8.17875 38.5723 8.17859 37.5811 8.78766 36.9717L11.5083 34.2503C11.0763 33.4209 10.7177 32.5553 10.4377 31.6655H6.58984C5.72828 31.6655 5.02734 30.9645 5.02734 30.103V23.5662C5.02734 22.7047 5.72828 22.0037 6.58984 22.0037H10.4375C10.7175 21.1137 11.0761 20.2483 11.5081 19.4191L8.7875 16.6975C8.17859 16.0886 8.17859 15.0973 8.7875 14.488L13.4097 9.86594C14.0189 9.25703 15.0102 9.25687 15.6194 9.86562L18.3409 12.5862C19.17 12.1542 20.0355 11.7956 20.9255 11.5156V7.66797C20.9255 6.80641 21.6264 6.10547 22.488 6.10547H29.0247C29.8862 6.10547 30.5872 6.80641 30.5872 7.66797V11.5158C31.4772 11.7958 32.3427 12.1544 33.1719 12.5862L35.8933 9.86578C36.5027 9.25687 37.4939 9.25703 38.1028 9.86609L42.725 14.4881C43.3341 15.0975 43.3341 16.0886 42.725 16.6977L40.0045 19.4192C40.4366 20.2484 40.7952 21.1139 41.0752 22.0039H44.9228C45.7844 22.0039 46.4853 22.7048 46.4853 23.5664V30.1031C46.4853 30.9647 45.7844 31.6656 44.9228 31.6656H41.0752C40.7952 32.5555 40.4366 33.4211 40.0045 34.2505L42.7252 36.9717C43.3341 37.5809 43.3341 38.5722 42.725 39.1812L38.1028 43.8034C37.8078 44.0986 37.4155 44.2612 36.9981 44.2612C36.5808 44.2612 36.1884 44.0989 35.8933 43.8037L33.1719 41.0831C32.3428 41.5152 31.4773 41.8737 30.5872 42.1537V46.0016C30.5875 46.8628 29.8866 47.5637 29.025 47.5637ZM18.202 39.3362C18.3344 39.3362 18.4675 39.3698 18.5886 39.4386C19.6358 40.0352 20.7542 40.4983 21.9131 40.8156C22.2527 40.9084 22.4881 41.217 22.4881 41.5691V46.0012H29.0248V41.5691C29.0248 41.217 29.2603 40.9083 29.5998 40.8156C30.7587 40.4984 31.8773 40.0353 32.9244 39.4386C33.2303 39.2648 33.6145 39.3162 33.8634 39.565L36.998 42.6986L41.6202 38.0764L38.4866 34.9419C38.2378 34.693 38.1861 34.3086 38.3602 34.0028C38.9567 32.9555 39.42 31.8369 39.737 30.6781C39.83 30.3384 40.1384 30.103 40.4906 30.103H44.9228V23.5662H40.4906C40.1386 23.5662 39.83 23.3308 39.737 22.9911C39.42 21.8323 38.9567 20.7137 38.3602 19.6666C38.1859 19.3609 38.2377 18.9764 38.4864 18.7275L41.62 15.5928L36.9978 10.9708L33.8633 14.1044C33.6142 14.353 33.23 14.4045 32.9242 14.2308C31.877 13.6342 30.7586 13.1711 29.5997 12.8539C29.2602 12.7611 29.0247 12.4525 29.0247 12.1005V7.66797H22.488V12.1002C22.488 12.4522 22.2525 12.7608 21.913 12.8536C20.7541 13.1708 19.6355 13.6339 18.5884 14.2305C18.2828 14.4045 17.8983 14.3531 17.6494 14.1041L14.5148 10.9708L9.89281 15.5928L13.0264 18.7275C13.2752 18.9764 13.3269 19.3609 13.1527 19.6666C12.5561 20.7137 12.0928 21.8323 11.7758 22.9911C11.6828 23.3308 11.3744 23.5662 11.0222 23.5662H6.58984V30.103H11.0222C11.3742 30.103 11.6828 30.3384 11.7758 30.6781C12.0928 31.8369 12.5561 32.9555 13.1527 34.0028C13.3267 34.3086 13.2752 34.693 13.0262 34.9419L9.89266 38.0764L14.5148 42.6986L17.6495 39.565C17.8 39.4147 17.9998 39.3362 18.202 39.3362ZM25.7566 36.4547C24.1428 36.4547 22.5455 36.0464 21.1372 35.2739C20.7589 35.0664 20.6203 34.5916 20.828 34.2133C21.0356 33.835 21.5105 33.6962 21.8886 33.9041C23.0673 34.5506 24.4048 34.8922 25.7567 34.8922C30.1997 34.8922 33.8142 31.2775 33.8142 26.8347C33.8142 22.3917 30.1997 18.7773 25.7567 18.7773C21.3139 18.7773 17.6994 22.3919 17.6994 26.8347C17.6994 28.0875 17.9803 29.2895 18.5345 30.4073C18.7261 30.7939 18.5681 31.2627 18.1816 31.4542C17.7947 31.6456 17.3262 31.4878 17.1345 31.1012C16.4725 29.7658 16.1369 28.3303 16.1369 26.8345C16.1369 21.5302 20.4523 17.2147 25.7567 17.2147C31.0613 17.2147 35.3767 21.5302 35.3767 26.8345C35.3766 32.1392 31.0611 36.4547 25.7566 36.4547Z" fill="#409FFF"/>
<path d="M59.2734 16.4551C58.1341 16.4551 57.207 15.528 57.207 14.3887C57.207 13.2493 58.1341 12.3223 59.2734 12.3223C60.413 12.3223 61.3398 13.2493 61.3398 14.3887C61.3398 15.528 60.4128 16.4551 59.2734 16.4551ZM59.2734 13.8849C58.9956 13.8849 58.7695 14.1109 58.7695 14.3888C58.7695 14.6666 58.9956 14.8927 59.2734 14.8927C59.5512 14.8927 59.7773 14.6668 59.7773 14.3888C59.7773 14.1109 59.5512 13.8849 59.2734 13.8849Z" fill="#3078BF"/>
<path d="M59.2734 74.5822C58.1341 74.5822 57.207 73.6552 57.207 72.5158C57.207 71.3762 58.1341 70.4492 59.2734 70.4492C60.413 70.4492 61.3398 71.3762 61.3398 72.5158C61.3398 73.6552 60.4128 74.5822 59.2734 74.5822ZM59.2734 72.0117C58.9956 72.0117 58.7695 72.2378 58.7695 72.5158C58.7695 72.7936 58.9956 73.0197 59.2734 73.0197C59.5512 73.0197 59.7773 72.7938 59.7773 72.5158C59.7773 72.238 59.5512 72.0117 59.2734 72.0117Z" fill="#409FFF"/>
<path d="M34.207 7.66813C33.0677 7.66813 32.1406 6.74109 32.1406 5.60172C32.1406 4.46219 33.0677 3.53516 34.207 3.53516C35.3464 3.53516 36.2734 4.46219 36.2734 5.60172C36.2734 6.74125 35.3464 7.66813 34.207 7.66813ZM34.207 5.09781C33.9292 5.09781 33.7031 5.32391 33.7031 5.60188C33.7031 5.87969 33.9292 6.10578 34.207 6.10578C34.4848 6.10578 34.7109 5.87984 34.7109 5.60188C34.7109 5.32391 34.4848 5.09781 34.207 5.09781Z" fill="#409FFF"/>
<path d="M51.4207 22.3432C51.2207 22.3432 51.0209 22.2669 50.8682 22.1143L49.1039 20.3499C48.7987 20.0449 48.7987 19.5502 49.1039 19.2452L50.8682 17.4808C51.1734 17.1757 51.6679 17.1757 51.9731 17.4808L53.7375 19.2452C53.884 19.3918 53.9662 19.5904 53.9662 19.7975C53.9662 20.0047 53.8839 20.2035 53.7375 20.3499L51.9731 22.1143C51.8206 22.2669 51.6206 22.3432 51.4207 22.3432ZM50.7612 19.7975L51.4207 20.4571L52.0803 19.7975L51.4207 19.138L50.7612 19.7975Z" fill="#409FFF"/>
<path d="M9.1727 54.726C8.96551 54.726 8.76676 54.6436 8.6202 54.4971L6.85582 52.7327C6.55066 52.4277 6.55066 51.933 6.85582 51.628L8.6202 49.8636C8.92535 49.5585 9.41988 49.5585 9.72504 49.8636L11.4894 51.628C11.636 51.7746 11.7182 51.9732 11.7182 52.1804C11.7182 52.3875 11.6358 52.5863 11.4894 52.7327L9.72504 54.4972C9.57863 54.6436 9.37988 54.726 9.1727 54.726ZM8.51301 52.1804L9.17254 52.84L9.83207 52.1804L9.17254 51.5208L8.51301 52.1804Z" fill="#3078BF"/>
</g>
<defs>
<linearGradient id="paint0_linear" x1="64.4789" y1="44.371" x2="44.3535" y2="44.371" gradientUnits="userSpaceOnUse">
<stop stop-color="#409FFF"/>
<stop offset="1" stop-color="#3078BF"/>
</linearGradient>
<clipPath id="clip0">
<rect width="80" height="80" fill="white"/>
</clipPath>
</defs>
</svg>
