<svg width="110" height="110" viewBox="0 0 110 110" fill="none" xmlns="http://www.w3.org/2000/svg">
<circle cx="55" cy="55" r="55" fill="#F2EEED"/>
<path d="M54.7136 55.3334C57.2188 55.3334 59.6678 54.5905 61.7508 53.1987C63.8339 51.8069 65.4574 49.8286 66.4161 47.5141C67.3748 45.1995 67.6257 42.6527 67.1369 40.1956C66.6482 37.7385 65.4418 35.4815 63.6703 33.71C61.8988 31.9385 59.6418 30.7321 57.1847 30.2434C54.7276 29.7546 52.1808 30.0055 49.8662 30.9642C47.5517 31.9229 45.5734 33.5464 44.1816 35.6295C42.7898 37.7125 42.0469 40.1615 42.0469 42.6667C42.0469 46.0261 43.3814 49.248 45.7569 51.6234C48.1323 53.9989 51.3542 55.3334 54.7136 55.3334ZM54.7136 33.6191C56.503 33.6191 58.2523 34.1497 59.7402 35.1439C61.2281 36.138 62.3877 37.5511 63.0725 39.2043C63.7573 40.8576 63.9365 42.6768 63.5874 44.4318C63.2383 46.1869 62.3766 47.799 61.1112 49.0644C59.8459 50.3297 58.2338 51.1914 56.4787 51.5405C54.7236 51.8896 52.9044 51.7105 51.2512 51.0257C49.598 50.3409 48.1849 49.1812 47.1907 47.6933C46.1966 46.2055 45.6659 44.4562 45.6659 42.6667C45.6659 40.2671 46.6192 37.9658 48.3159 36.2691C50.0127 34.5723 52.314 33.6191 54.7136 33.6191Z" fill="#DED4D1"/>
<path d="M56.5239 58.9526H52.9048C47.6257 58.9526 42.5629 61.0497 38.83 64.7826C35.0971 68.5155 33 73.5784 33 78.8575C33 79.3374 33.1906 79.7977 33.53 80.137C33.8694 80.4764 34.3296 80.667 34.8095 80.667H74.6192C75.0991 80.667 75.5594 80.4764 75.8987 80.137C76.2381 79.7977 76.4287 79.3374 76.4287 78.8575C76.4287 73.5784 74.3316 68.5155 70.5987 64.7826C66.8659 61.0497 61.803 58.9526 56.5239 58.9526ZM36.7276 77.0479C37.1726 73.0681 39.0683 69.3918 42.0525 66.7214C45.0367 64.0509 48.9002 62.5736 52.9048 62.5717H56.5239C60.5285 62.5736 64.392 64.0509 67.3762 66.7214C70.3605 69.3918 72.2561 73.0681 72.7011 77.0479H36.7276Z" fill="#DED4D1"/>
</svg>
