<svg width="24" height="24" viewBox="0 0 24 24" fill="none" xmlns="http://www.w3.org/2000/svg">
<path d="M15.68 0H8.32C1.59 0 0 1.59 0 8.32V15.68C0 22.41 1.59 24 8.32 24H15.68C22.41 24 24 22.41 24 15.68V8.32C24 1.59 22.41 0 15.68 0Z" fill="#1877F2"/>
<path d="M10.2695 24.0001V15.3601H7.26953V12.1501H10.2695V9.37008C10.2695 6.53008 11.9095 4.83008 14.6695 4.83008C15.5272 4.83903 16.3829 4.91257 17.2295 5.05008V7.77008H15.8395C15.5648 7.7367 15.2861 7.76472 15.0235 7.8521C14.761 7.93947 14.5211 8.08404 14.3211 8.27537C14.1212 8.4667 13.9662 8.70001 13.8674 8.95849C13.7685 9.21697 13.7283 9.49416 13.7495 9.77008V12.1501H17.0595L16.5695 15.3601H13.7695V24.0001H10.2695Z" fill="white"/>
</svg>
