<svg width="24" height="24" viewBox="0 0 24 24" fill="none" xmlns="http://www.w3.org/2000/svg">
<path d="M15.68 0H8.32C1.59 0 0 1.59 0 8.32V15.68C0 22.41 1.59 24 8.32 24H15.68C22.41 24 24 22.41 24 15.68V8.32C24 1.61 22.41 0 15.68 0Z" fill="#02B3EC"/>
<path d="M18.4604 7.82989V7.76989C18.468 7.64886 18.4347 7.52879 18.3658 7.42902C18.2968 7.32925 18.1963 7.25558 18.0804 7.21989C17.991 7.20567 17.8999 7.20567 17.8104 7.21989C17.5125 7.21292 17.2164 7.26739 16.9404 7.37989C16.0704 7.69989 15.2104 8.03989 14.3504 8.37989L12.6004 8.99989L11.8104 9.32989L10.8704 9.71989L9.98041 10.0999C8.81375 10.5866 7.65375 11.0966 6.50041 11.6299C6.00041 11.8699 5.50041 12.1099 5.02041 12.3799C4.94885 12.4185 4.88455 12.4692 4.83041 12.5299C4.80622 12.5532 4.78697 12.5812 4.77383 12.6121C4.76068 12.643 4.75391 12.6763 4.75391 12.7099C4.75391 12.7435 4.76068 12.7768 4.77383 12.8077C4.78697 12.8386 4.80622 12.8666 4.83041 12.8899C4.88124 12.9473 4.94227 12.9948 5.01041 13.0299C5.11172 13.0961 5.21882 13.153 5.33041 13.1999C5.80323 13.4153 6.2912 13.5958 6.79041 13.7399C7.14298 13.8667 7.50856 13.9539 7.88041 13.9999C8.30002 14.0464 8.72357 13.9588 9.09041 13.7499C9.63041 13.4432 10.1604 13.1099 10.6804 12.7499C11.5804 12.1599 12.4704 11.5299 13.3504 10.9099C13.6714 10.6655 14.0052 10.4385 14.3504 10.2299C14.4516 10.1576 14.5628 10.1004 14.6804 10.0599C14.7299 10.0496 14.7809 10.0496 14.8304 10.0599C14.9104 10.0599 14.9504 10.0599 14.9404 10.1799C14.9368 10.2861 14.8982 10.3881 14.8304 10.4699C14.5404 10.7699 14.2504 11.0699 13.9504 11.3599C13.3504 11.9299 12.7304 12.4699 12.1304 13.0299L11.1304 13.9399C10.9578 14.0991 10.8214 14.2934 10.7304 14.5099C10.6679 14.6476 10.6437 14.7996 10.6604 14.9499C10.6718 15.037 10.7007 15.1209 10.7454 15.1965C10.79 15.2721 10.8496 15.3379 10.9204 15.3899L11.4304 15.7499L15.1304 18.2499L15.3504 18.3999C15.5029 18.4971 15.6773 18.5544 15.8576 18.5667C16.038 18.579 16.2186 18.5458 16.3828 18.4701C16.547 18.3945 16.6896 18.2789 16.7975 18.1338C16.9054 17.9887 16.9752 17.8189 17.0004 17.6399L17.3004 15.9399L17.6004 14.1199C17.7104 13.4899 17.8104 12.8599 17.9104 12.2299C17.9904 11.7699 18.0604 11.3099 18.1304 10.8499L18.4004 8.90989C18.4004 8.54989 18.4404 8.18989 18.4604 7.82989Z" fill="white"/>
</svg>
