<svg width="24" height="24" viewBox="0 0 24 24" fill="none" xmlns="http://www.w3.org/2000/svg">
<path d="M15.68 0H8.32C1.59 0 0 1.59 0 8.32V15.68C0 22.41 1.59 24 8.32 24H15.68C22.41 24 24 22.41 24 15.68V8.32C24 1.61 22.41 0 15.68 0Z" fill="#665CAC"/>
<path d="M12.9998 7.62993C12.9411 7.627 12.8824 7.63613 12.8274 7.65677C12.7723 7.67741 12.7221 7.70912 12.6798 7.74993C12.5938 7.82749 12.5402 7.93462 12.5298 8.04993C12.5243 8.16767 12.5652 8.28286 12.6438 8.37075C12.7223 8.45864 12.8322 8.5122 12.9498 8.51993C13.1898 8.50402 13.4304 8.54077 13.6547 8.62762C13.879 8.71446 14.0816 8.8493 14.2483 9.02269C14.415 9.19607 14.5418 9.40381 14.6198 9.63135C14.6978 9.85889 14.7251 10.1007 14.6998 10.3399C14.7011 10.3964 14.7135 10.4521 14.7363 10.5037C14.7591 10.5554 14.7919 10.6021 14.8328 10.6411C14.8736 10.6801 14.9218 10.7107 14.9745 10.7311C15.0271 10.7514 15.0833 10.7613 15.1398 10.7599C15.1968 10.7587 15.2529 10.7457 15.3045 10.7216C15.3562 10.6974 15.4023 10.6628 15.4398 10.6199C15.4801 10.5773 15.5115 10.527 15.5321 10.4721C15.5527 10.4171 15.5621 10.3586 15.5598 10.2999C15.5805 9.9532 15.5293 9.60594 15.4095 9.27993C15.2896 8.95392 15.1037 8.65621 14.8633 8.40549C14.6229 8.15477 14.3332 7.95645 14.0126 7.82299C13.6919 7.68953 13.3471 7.6238 12.9998 7.62993Z" fill="white"/>
<path d="M17.0001 11.3901C17.117 11.3876 17.2286 11.3408 17.3122 11.2591C17.3957 11.1773 17.4451 11.0668 17.4501 10.9501C17.4845 10.2891 17.3873 9.62783 17.1641 9.0047C16.941 8.38157 16.5963 7.80895 16.1501 7.32005C15.1916 6.3229 13.8824 5.73825 12.5001 5.69005C12.4405 5.685 12.3805 5.69214 12.3238 5.71106C12.2671 5.72997 12.2148 5.76025 12.1701 5.80005C12.0842 5.87761 12.0306 5.98474 12.0201 6.10005C12.0151 6.15965 12.0222 6.21964 12.0411 6.27638C12.06 6.33312 12.0903 6.38541 12.1301 6.43005C12.1671 6.47432 12.2129 6.51049 12.2645 6.5363C12.3161 6.56211 12.3725 6.577 12.4301 6.58005C13.5994 6.60202 14.713 7.08339 15.5301 7.92005C15.8983 8.32393 16.1818 8.79748 16.3638 9.31275C16.5459 9.82802 16.6228 10.3745 16.5901 10.9201C16.5869 11.0356 16.6273 11.1481 16.7033 11.2351C16.7793 11.3222 16.8852 11.3775 17.0001 11.3901Z" fill="white"/>
<path d="M17.1999 5.93992C16.4907 5.24661 15.6507 4.70125 14.7288 4.33558C13.8069 3.96991 12.8215 3.79122 11.8299 3.80992C11.7122 3.80989 11.5993 3.85593 11.5152 3.93817C11.4311 4.02041 11.3825 4.13232 11.3799 4.24992C11.382 4.36903 11.4283 4.48308 11.5099 4.56992C11.5956 4.65318 11.7104 4.6998 11.8299 4.69992C12.7054 4.68159 13.5757 4.83846 14.3897 5.16131C15.2037 5.48416 15.945 5.96648 16.5699 6.57992C17.2205 7.25683 17.727 8.05872 18.0588 8.93706C18.3905 9.81539 18.5406 10.7519 18.4999 11.6899C18.5025 11.8075 18.5511 11.9194 18.6352 12.0017C18.7193 12.0839 18.8322 12.13 18.9499 12.1299C19.0085 12.1299 19.0666 12.1182 19.1206 12.0955C19.1747 12.0728 19.2236 12.0395 19.2646 11.9975C19.3056 11.9556 19.3378 11.9059 19.3593 11.8514C19.3808 11.7968 19.3912 11.7385 19.3899 11.6799C19.433 10.6247 19.2611 9.57167 18.8846 8.58491C18.5082 7.59816 17.935 6.69827 17.1999 5.93992Z" fill="white"/>
<path d="M18.51 15.7601C18.51 15.7601 17.68 15.0701 17.27 14.7601C16.8418 14.4537 16.3978 14.17 15.94 13.9101C15.6892 13.7527 15.3908 13.6895 15.0978 13.7316C14.8048 13.7738 14.5362 13.9185 14.34 14.1401L13.81 14.8101C13.7234 14.8994 13.619 14.9696 13.5036 15.0161C13.3882 15.0626 13.2643 15.0844 13.14 15.0801C12.0433 14.7451 11.0457 14.1459 10.2349 13.3351C9.42411 12.5243 8.82489 11.5267 8.48995 10.4301C8.47986 10.3 8.49786 10.1693 8.54272 10.0468C8.58758 9.92428 8.65825 9.81286 8.74995 9.72006L9.41995 9.19006C9.64153 8.99378 9.78626 8.72524 9.82838 8.43224C9.8705 8.13924 9.80727 7.84081 9.64995 7.59006C9.38972 7.13238 9.10601 6.68846 8.79995 6.26006C8.50995 5.86006 7.79995 5.03006 7.79995 5.02006C7.63132 4.81364 7.39405 4.67479 7.13149 4.62889C6.86893 4.58299 6.59861 4.6331 6.36995 4.77006C5.8316 5.06965 5.34806 5.45852 4.93995 5.92006C4.6319 6.24581 4.4297 6.65719 4.35995 7.10006C4.35007 7.15966 4.35007 7.22047 4.35995 7.28006C4.35226 7.4537 4.37946 7.62712 4.43995 7.79006C4.81476 8.86589 5.29721 9.90114 5.87995 10.8801C6.37337 11.8056 6.95258 12.6828 7.60995 13.5001C7.91871 13.9136 8.25267 14.3077 8.60995 14.6801L8.76995 14.8401C9.14498 15.1944 9.53889 15.5282 9.94995 15.8401C10.7721 16.4907 11.6487 17.0695 12.57 17.5701C13.5495 18.1489 14.5847 18.628 15.66 19.0001C15.8205 19.0565 15.9898 19.0836 16.16 19.0801H16.34C16.7841 19.0115 17.1981 18.8132 17.53 18.5101C17.9751 18.1095 18.3532 17.6402 18.65 17.1201C18.7817 16.9103 18.8396 16.6624 18.8142 16.4159C18.7888 16.1695 18.6817 15.9386 18.51 15.7601Z" fill="white"/>
</svg>
