<svg width="24" height="24" viewBox="0 0 24 24" fill="none" xmlns="http://www.w3.org/2000/svg">
<g clip-path="url(#clip0)">
<path d="M0 11.5C0 6.07885 0 3.36827 1.68413 1.68413C3.36827 0 6.07885 0 11.5 0H12.5C17.9212 0 20.6318 0 22.3158 1.68413C24 3.36827 24 6.07885 24 11.5V12.5C24 17.9212 24 20.6318 22.3158 22.3158C20.6318 24 17.9212 24 12.5 24H11.5C6.07885 24 3.36827 24 1.68413 22.3158C0 20.6318 0 17.9212 0 12.5L0 11.5Z" fill="#2787F5"/>
<path fill-rule="evenodd" clip-rule="evenodd" d="M6.49996 7.5H4.74956C4.24944 7.5 4.14941 7.7354 4.14941 7.9949C4.14941 8.45845 4.74284 10.7574 6.91251 13.7979C8.35896 15.8744 10.3969 17 12.2513 17C13.364 17 13.5016 16.75 13.5016 16.3194V14.75C13.5016 14.25 13.607 14.1502 13.9593 14.1502C14.219 14.1502 14.664 14.28 15.7025 15.2811C16.8894 16.4677 17.085 17 17.7526 17H19.503C20.0031 17 20.2532 16.75 20.1089 16.2567C19.9511 15.765 19.3844 15.0515 18.6325 14.2058C18.2245 13.7238 17.6126 13.2047 17.4271 12.9451C17.1675 12.6114 17.2417 12.463 17.4271 12.1664C17.4271 12.1664 19.5597 9.16295 19.7823 8.1433C19.8935 7.77245 19.7823 7.5 19.2529 7.5H17.5025C17.0575 7.5 16.8523 7.7354 16.741 7.9949C16.741 7.9949 15.8509 10.1641 14.5899 11.5731C14.1819 11.981 13.9964 12.1108 13.7739 12.1108C13.6626 12.1108 13.5016 11.981 13.5016 11.6103V8.1433C13.5016 7.6983 13.3724 7.5 13.0015 7.5H10.2508C9.97271 7.5 9.80541 7.7065 9.80541 7.90225C9.80541 8.32405 10.4359 8.42135 10.5009 9.6079V12.185C10.5009 12.75 10.3988 12.8525 10.1763 12.8525C9.58291 12.8525 8.13946 10.6736 7.28336 8.18035C7.11561 7.69575 6.94731 7.5 6.49996 7.5Z" fill="white"/>
</g>
<defs>
<clipPath id="clip0">
<rect width="24" height="24" fill="white"/>
</clipPath>
</defs>
</svg>
